<?xml version="1.0" standalone="no"?>
<!DOCTYPE svg PUBLIC "-//W3C//DTD SVG 20010904//EN"
 "http://www.w3.org/TR/2001/REC-SVG-20010904/DTD/svg10.dtd">
<svg version="1.0" xmlns="http://www.w3.org/2000/svg"
 width="480.000000pt" height="480.000000pt" viewBox="0 0 480.000000 480.000000"
 preserveAspectRatio="xMidYMid meet">
<metadata>
Created by potrace 1.14, written by Peter Selinger 2001-2017
</metadata>
<g transform="translate(0.000000,480.000000) scale(0.100000,-0.100000)"
fill="#000000" stroke="none">
<path d="M1885 4489 c-647 -377 -1406 -817 -1615 -937 -91 -52 -170 -100 -176
-106 -8 -8 -13 -125 -15 -395 l-4 -383 227 -132 c125 -72 228 -134 228 -137 0
-4 -96 -62 -212 -130 -117 -67 -218 -127 -224 -133 -8 -8 -13 -125 -15 -395
l-4 -384 710 -410 c391 -225 914 -527 1164 -671 l454 -262 416 241 c229 133
601 349 826 480 226 131 556 323 734 426 179 104 328 192 332 196 4 5 8 181
10 392 l4 383 -227 132 c-125 72 -228 134 -228 137 0 3 99 64 220 134 122 71
222 131 224 134 2 3 5 179 7 390 l4 383 -315 182 c-1225 709 -1996 1151 -2010
1154 -8 1 -240 -129 -515 -289z m1393 -994 c419 -242 762 -442 762 -445 0 -3
-99 -63 -221 -134 -188 -109 -224 -127 -242 -119 -12 6 -280 159 -596 342
-316 182 -579 331 -584 331 -6 0 -144 -77 -306 -172 -651 -378 -866 -501 -877
-501 -14 0 -454 254 -454 262 0 3 235 142 523 308 287 167 653 379 812 472
l290 169 66 -37 c36 -20 409 -234 827 -476z m-642 -938 c137 -79 257 -148 266
-153 14 -8 -33 -39 -237 -157 l-254 -148 -265 153 c-152 88 -259 156 -253 160
11 6 491 286 493 287 1 1 113 -64 250 -142z m-1167 -696 c562 -326 926 -534
936 -534 5 0 129 70 275 155 713 416 896 521 905 521 14 0 455 -254 455 -262
0 -3 -130 -81 -288 -173 -158 -91 -474 -275 -702 -408 -228 -133 -465 -271
-527 -307 l-112 -64 -508 294 c-279 161 -651 376 -825 477 -175 100 -318 185
-318 189 0 7 430 259 444 260 6 1 125 -66 265 -148z"/>
</g>
</svg>
